<svg width="24" height="24" viewBox="0 0 24 24" fill="none" xmlns="http://www.w3.org/2000/svg">
<path d="M11.3553 4.42535C11.3395 4.90054 10.9283 8.90002 10.8887 10.9789C8.93517 10.9064 5.13037 11.0265 4.22752 10.9789C3.09895 10.9196 2.99995 11.5333 3.01975 11.9095C3.03954 12.2857 3.71031 12.8843 4.73988 13.0625C5.56353 13.2051 9.12214 13.4519 10.7985 13.5575V18.2617C10.7985 18.9744 11.0781 20.9776 11.8107 21.0172C12.5433 21.0568 12.8601 19.4333 12.8799 18.8195C12.8957 18.3285 13.2758 15.2596 13.3748 13.6757C14.774 13.7153 17.7545 13.5212 19.1959 13.3153C20.9976 13.0579 19.7502 11.3947 19.4137 11.2561C19.0771 11.1175 17.6911 11.2561 16.0082 11.2561C14.6618 11.2561 13.8428 11.0459 13.4666 11.0459C13.526 9.20459 13.3748 5.51432 13.3748 4.64314C13.3748 3.55418 12.8403 3.09879 12.3453 3.09879C11.8503 3.09879 11.3751 3.83136 11.3553 4.42535Z" fill="white"/>
</svg>
