<svg width="32" height="33" viewBox="0 0 32 33" fill="none" xmlns="http://www.w3.org/2000/svg">
<path fill-rule="evenodd" clip-rule="evenodd" d="M10.0915 27.4258C10.2974 27.4393 10.5065 27.4529 10.7204 27.4672C10.7262 27.5234 10.7316 27.5775 10.7368 27.6303C10.7496 27.7575 10.7615 27.8765 10.7746 27.9953C10.8778 28.942 11.4496 29.6465 12.3746 29.8304C13.1645 29.9873 13.9724 30.1269 14.7746 30.1394C17.2164 30.1776 19.6593 30.1662 22.1014 30.1406C22.941 30.1222 23.7791 30.0605 24.6124 29.9555C25.8037 29.819 26.5712 29.1352 26.8159 27.9943C26.9254 27.4768 26.9895 26.9508 27.0074 26.4222C27.0265 25.8939 27.0257 25.3649 27.0249 24.836C27.0243 24.4298 27.0237 24.0236 27.0321 23.6178C27.035 23.4781 27.0376 23.3383 27.0402 23.1985C27.0548 22.4032 27.0695 21.6067 27.1424 20.8168C27.3613 18.4403 27.5259 16.0653 27.3805 13.6783C27.3468 12.9472 27.2393 12.2214 27.0595 11.512C26.8381 10.6877 26.3275 10.1847 25.4926 10.0466C25.0925 9.98065 24.6868 9.94716 24.2814 9.91369C24.1599 9.90367 24.0385 9.89364 23.9173 9.88275C23.8022 9.87239 23.6861 9.87534 23.5786 9.87806C23.532 9.87924 23.4871 9.88038 23.4446 9.88038C23.4479 9.63733 23.4539 9.40049 23.4598 9.16799C23.4727 8.65754 23.485 8.16801 23.4679 7.67955C23.4372 6.81236 22.9896 6.32733 22.1281 6.21879C21.4344 6.13138 20.7346 6.07457 20.036 6.04826C17.2609 5.94409 14.5014 6.17408 11.7422 6.40406C11.2456 6.44545 10.749 6.48684 10.2523 6.52628C10.062 6.54182 9.87286 6.57376 9.68406 6.60564C9.64263 6.61263 9.60122 6.61962 9.55981 6.62644C8.58581 6.78642 7.98145 7.3615 7.6809 8.29024C7.32088 9.35328 7.1147 10.4625 7.06863 11.5841C7.00435 13.9051 6.93154 16.2236 6.76272 18.5397C6.68345 19.6269 6.63854 20.7176 6.60981 21.8075C6.58163 22.882 6.57245 23.958 6.59527 25.0324C6.61081 25.7684 6.81217 26.444 7.45217 26.9157C7.83317 27.1964 8.26281 27.2976 8.71736 27.3318C9.16943 27.3658 9.62181 27.3953 10.0915 27.4258ZM10.72 25.846C10.7145 25.9387 10.7087 26.0363 10.7029 26.1415C10.6232 26.1415 10.5482 26.1426 10.4765 26.1436C10.3284 26.1458 10.1942 26.1478 10.0608 26.1394C9.78289 26.1223 9.6537 26.1044 9.50159 26.0834C9.3905 26.068 9.26719 26.051 9.06478 26.0313C8.69605 25.9954 8.49641 25.8207 8.42432 25.4607C8.36209 25.1875 8.32857 24.9086 8.32432 24.6284C8.32993 24.1907 8.33475 23.7529 8.33957 23.3151C8.35774 21.6654 8.37591 20.0155 8.43604 18.3678C8.51396 16.2302 8.64146 14.0943 8.76893 11.9589C8.77695 11.8247 8.78496 11.6904 8.79296 11.5562C8.85782 10.5927 9.01215 10.0989 9.31491 9.18206C9.43455 8.80983 9.65036 8.56053 10.0608 8.51164C10.2038 8.49463 10.3463 8.47081 10.4887 8.447C10.6993 8.41178 10.9098 8.37658 11.1217 8.36349C11.8985 8.31535 12.6471 8.25883 13.3823 8.20332C15.4824 8.04476 17.4736 7.89442 19.7011 7.97097C20.2311 7.98915 20.7605 8.02593 21.2912 8.0628C21.5363 8.07982 21.7816 8.09686 22.0275 8.11211C22.1828 8.88951 22.1742 9.15315 22.1249 9.89541C22.0678 9.90211 22.0162 9.90921 21.968 9.91583C21.8763 9.92845 21.7974 9.93929 21.7182 9.94222C21.0837 9.96572 20.4491 9.98757 19.8145 10.0094C18.4281 10.0572 17.0416 10.1049 15.6559 10.1698C14.8645 10.206 14.076 10.2891 13.2944 10.4185C12.7017 10.5057 12.1642 10.8153 11.7908 11.2845C11.6587 11.4529 11.5649 11.6482 11.5157 11.8566C11.2684 12.9904 11.2158 14.146 11.1634 15.3C11.1593 15.3903 11.1552 15.4805 11.151 15.5708C11.0847 16.9984 11.0273 18.4265 10.97 19.8545C10.948 20.4031 10.926 20.9517 10.9034 21.5002C10.8523 22.7766 10.8003 24.0529 10.7475 25.3291C10.7407 25.4948 10.7309 25.6604 10.72 25.846ZM12.6734 20.6728H12.7292C12.7284 18.9105 12.7286 17.1484 12.7299 15.3866C12.7301 15.0995 12.7348 14.8124 12.7395 14.5253C12.7403 14.4775 12.7411 14.4297 12.7419 14.3819C12.7308 14.2803 12.737 14.1776 12.7603 14.0781C12.9025 13.6905 13.0044 13.2892 13.0643 12.8807C13.0867 12.7509 13.2859 12.6252 13.431 12.5486C13.8528 12.3249 14.3257 12.3 14.7885 12.2799C15.4278 12.2522 16.0676 12.2351 16.7073 12.218C17.0998 12.2075 17.4922 12.197 17.8846 12.1841C18.3842 12.1675 18.8838 12.1482 19.3834 12.129C20.3365 12.0924 21.2895 12.0557 22.2434 12.0372C22.7963 12.0264 23.3497 12.0445 23.9032 12.0626C24.1916 12.072 24.48 12.0814 24.7683 12.0867C25.1182 12.0932 25.2781 12.29 25.3648 12.6085C25.5572 13.3171 25.6038 14.0433 25.6385 14.7692C25.7324 16.7376 25.6036 18.6982 25.4117 20.6566C25.3379 21.4093 25.318 22.1683 25.3039 22.9249C25.2954 23.3807 25.2969 23.8367 25.2984 24.2928C25.3002 24.8417 25.302 25.3907 25.2864 25.9392C25.2602 26.4324 25.2007 26.9232 25.1083 27.4083C25.0399 27.8199 24.7685 28.0845 24.372 28.1856C24.0496 28.2738 23.7192 28.3293 23.3858 28.3513C23.1791 28.3609 22.9723 28.3708 22.7656 28.3806C21.404 28.4454 20.0419 28.5102 18.6794 28.5291C17.4155 28.5467 16.149 28.5081 14.8863 28.4426C14.3773 28.4162 13.8707 28.3148 13.3668 28.2139C13.2717 28.1949 13.1767 28.1759 13.0817 28.1574C12.7324 28.0894 12.5274 27.8566 12.5104 27.483C12.507 27.4107 12.5004 27.3384 12.4937 27.2661C12.483 27.1495 12.4723 27.033 12.4756 26.9169C12.4961 26.2042 12.5202 25.4917 12.5443 24.7791C12.5581 24.3711 12.5719 23.963 12.585 23.5549L12.6734 20.6728Z" fill="black"/>
</svg>
