<svg width="32" height="32" viewBox="0 0 32 32" fill="none" xmlns="http://www.w3.org/2000/svg">
<path fill-rule="evenodd" clip-rule="evenodd" d="M26.8737 21.8632C27.3409 20.9662 27.8035 20.0527 27.9452 19.0343C27.9482 19.0121 27.9514 18.9895 27.9546 18.9665C28.0797 18.0692 28.3013 16.4795 28.0733 14.7177C27.7918 12.5397 26.962 10.6154 25.7661 8.83343C24.5703 7.05147 22.8019 5.98898 20.8204 5.29265C18.8007 4.58735 16.6449 4.36248 14.5235 4.63591C12.5223 4.87778 10.6702 5.48604 9.03363 6.67334C7.39028 7.87531 6.02375 9.41641 5.0264 11.1926C4.20372 12.6302 3.74859 14.1769 3.56989 15.8272C3.42514 17.1634 3.56064 18.4696 3.78083 19.777C3.89996 20.4837 4.03276 21.1732 4.38644 21.8324C4.99894 23.0053 5.76863 24.0889 6.67418 25.0533C8.80843 27.2889 11.4344 28.3538 14.4765 28.5086C15.7383 28.5727 16.983 28.4148 18.2185 28.1979C20.2117 27.848 22.0352 27.09 23.63 25.8239C24.9794 24.7488 26.085 23.3987 26.8737 21.8632ZM25.225 12.9641C25.6558 14.1016 25.7676 15.3115 25.777 16.5348C25.7693 16.6299 25.7633 16.7465 25.7564 16.8819C25.713 17.7326 25.6318 19.3226 24.8226 20.9488C23.2663 24.0762 20.8527 25.9594 17.4713 26.4972C16.3405 26.6771 15.2069 26.806 14.0569 26.709C11.6891 26.5086 9.66451 25.6119 7.9851 23.823C6.40293 22.1378 5.29826 20.166 5.29769 17.8593C5.29675 14.1594 6.18248 11.9103 7.82518 10.0271C8.21199 9.58287 8.62068 9.15944 9.04968 8.7584C10.5035 7.40225 12.2323 6.67264 14.1619 6.38588C16.0504 6.10414 17.9771 6.30804 19.7705 6.9794C21.3434 7.55633 22.7323 8.42922 23.7301 9.85889C24.3279 10.4749 24.7204 11.5676 25.0399 12.4572C25.1042 12.6362 25.1655 12.807 25.225 12.9641Z" fill="black"/>
<path d="M14.7933 21.2934C14.6291 21.1817 14.4587 21.0776 14.2829 20.9814L14.2451 20.9616C13.7947 20.7245 13.3291 20.4793 12.858 20.2586C12.7369 20.202 12.6151 20.1392 12.4973 20.0784C12.1744 19.9117 11.8406 19.7395 11.4578 19.6568C11.441 19.6532 11.4233 19.6539 11.4069 19.6591C11.3905 19.6642 11.3762 19.6734 11.3654 19.6858L11.1834 19.8936C11.1731 19.9054 11.1667 19.9195 11.1647 19.9345C11.1627 19.9494 11.1653 19.9645 11.1722 19.9781C11.1847 20.003 11.1951 20.0283 11.2053 20.0529C11.2265 20.1143 11.2596 20.1719 11.3032 20.2229C12.2955 21.2659 13.5108 22.5661 15.2434 23.6144C15.3491 23.6751 15.4597 23.7287 15.5742 23.7747C15.7268 23.8437 15.8947 23.8811 16.0655 23.884C16.2948 23.8815 16.5154 23.804 16.6862 23.6662C16.7227 23.6384 16.76 23.6112 16.7973 23.5841C16.8776 23.5258 16.9606 23.4653 17.0369 23.3981C17.2474 23.2129 17.4588 23.0285 17.6711 22.845C18.2341 22.3562 18.5545 21.7559 19.099 21.234C19.4363 20.8963 20.0115 20.2671 20.2994 19.8941C20.3956 19.7748 20.4917 19.6554 20.5894 19.5377L20.6003 19.5247C20.6567 19.458 20.7887 19.302 20.5941 19.1196C20.5781 19.1046 20.5564 19.0957 20.5334 19.0946C20.2039 19.0799 19.9844 19.2537 19.7729 19.4229C19.6937 19.4894 19.6094 19.5508 19.5207 19.6065C19.189 19.8127 18.8724 20.0379 18.5731 20.2808L18.5184 20.3233C18.3654 20.4421 18.2176 20.5694 18.0748 20.6925C17.9382 20.8101 17.797 20.9318 17.6528 21.0445C17.5536 21.122 17.4603 21.208 17.3703 21.291C17.202 21.4606 17.0083 21.6082 16.7948 21.7296C16.7936 21.7209 16.7924 21.7124 16.7913 21.7039C16.7793 21.6353 16.7732 21.566 16.773 21.4966C16.787 21.0506 16.8023 20.6047 16.8189 20.1587C16.8444 19.4465 16.8708 18.71 16.8882 17.9851C16.8937 17.7585 16.8993 17.5317 16.9053 17.305C16.9572 15.2766 17.0108 13.18 16.8072 11.119C16.7341 10.3792 16.6102 9.63276 16.4905 8.91059L16.4402 8.60663C16.4097 8.49161 16.3536 8.38336 16.2753 8.28846C16.2274 8.21894 16.1732 8.14012 16.1125 8.03958C16.1043 8.02604 16.0921 8.01488 16.0772 8.00734C16.0623 7.9998 16.0453 7.99615 16.0282 7.99693C16.0112 7.99771 15.9947 8.00283 15.9807 8.01169C15.9667 8.02055 15.9557 8.03282 15.9492 8.04703C15.6002 8.04703 15.2493 8.65809 15.2434 8.99527C15.2413 9.11308 15.2394 9.22448 15.2297 9.33504C15.213 9.52531 15.1927 9.71534 15.1724 9.90521C15.1467 10.1449 15.1202 10.3927 15.1017 10.6376C15.0752 10.9902 15.0586 11.349 15.0427 11.6959C15.0376 11.8059 15.0324 11.916 15.0272 12.0261L15.0215 12.1416C15.0011 12.5587 14.9801 12.99 14.9647 13.4147C14.9505 13.8079 14.9395 14.2236 14.9305 14.7227C14.9247 15.0409 14.9217 15.3595 14.9187 15.6781L14.9143 16.1119C14.9127 16.2562 14.9107 16.4005 14.9085 16.5448C14.904 16.8582 14.8997 17.1825 14.8997 17.5016C14.9001 17.9121 14.9029 18.3983 14.9197 18.8925C14.9266 19.0971 14.9399 19.3043 14.9529 19.505C14.9676 19.732 14.9827 19.9663 14.9883 20.197C14.9917 20.336 15.0043 20.4776 15.0165 20.6145C15.0535 20.9075 15.0555 21.2032 15.0222 21.4966C14.7717 21.3747 15.019 21.4497 14.7933 21.2934Z" fill="black"/>
</svg>
