<svg width="48" height="48" viewBox="0 0 48 48" fill="none" xmlns="http://www.w3.org/2000/svg">
<path fill-rule="evenodd" clip-rule="evenodd" d="M40.8149 28.5628C40.8013 27.446 40.7876 26.3292 40.7752 25.2125L40.6244 25.2114C40.6244 24.8878 40.6257 24.5642 40.627 24.2406C40.6299 23.5363 40.6328 22.832 40.622 22.1277C40.5969 20.4913 40.568 18.855 40.539 17.2187C40.512 15.6901 40.4849 14.1614 40.461 12.6327C40.4477 11.7844 40.2477 11.0345 39.538 10.4829C39.3118 10.3071 39.1013 10.1111 38.8908 9.9151C38.7841 9.8158 38.6775 9.71648 38.5687 9.61976C36.3453 7.64184 34.1207 5.6651 31.8952 3.68952C31.5611 3.36663 31.1125 3.18946 30.6478 3.1968C30.0847 3.2088 29.5206 3.18879 28.9568 3.16879C28.8447 3.16481 28.7326 3.16083 28.6205 3.15711C23.8591 2.99849 19.0985 2.89395 14.3369 3.17734C13.5026 3.22699 12.6666 3.24809 11.8306 3.2692C11.2873 3.28291 10.744 3.29663 10.201 3.31818C9.8778 3.32827 9.55672 3.37434 9.24367 3.45547C8.36015 3.69411 7.85031 4.34031 7.49433 5.13718C7.01786 6.20241 6.98986 7.31789 7.00204 8.46931C7.04127 12.1445 7.06514 15.8196 7.08901 19.4948C7.11383 23.3154 7.13864 27.1361 7.18072 30.9568C7.21253 33.8485 7.31022 36.7399 7.40789 39.6308C7.42528 40.1457 7.44268 40.6606 7.4597 41.1754C7.5043 42.5226 8.72177 43.9419 9.95827 44.1181C10.9452 44.2832 11.9409 44.3913 12.9403 44.4418L13.0986 44.4458C17.5089 44.5584 21.9201 44.6709 26.3314 44.6948C29.6265 44.7127 32.9225 44.6433 36.2177 44.574C36.6008 44.566 36.9838 44.5579 37.3669 44.55C39.1962 44.5122 40.7694 43.2937 40.7843 41.2784C40.7892 40.6218 40.815 39.9653 40.8408 39.3088C40.8713 38.5325 40.9018 37.7563 40.8978 36.9801C40.8834 34.1744 40.8492 31.3684 40.8149 28.5628ZM33.3297 11.7359C32.9882 11.7552 32.6427 11.7747 32.2919 11.7946L31.5024 6.58352L31.6275 6.49179L37.1361 11.4912C36.9815 11.5042 36.8462 11.5163 36.7238 11.5272C36.4761 11.5494 36.2812 11.5668 36.0858 11.5782C35.1771 11.6316 34.2684 11.6829 33.3297 11.7359ZM32.0709 31.8486C32.453 32.0307 32.8462 32.2181 32.8953 32.883C32.6812 33.0263 32.4543 33.1494 32.2175 33.251C30.5874 33.7938 29.0753 32.5954 29.1998 30.8355C29.2304 30.2385 29.3854 29.6545 29.6546 29.1207C29.9239 28.587 30.3017 28.1153 30.7636 27.7359C31.1667 27.4219 31.6063 27.1578 32.073 26.9493C32.3308 26.8249 32.5142 26.658 32.4486 26.4129C32.4204 26.3048 32.3697 26.2037 32.2993 26.1167C32.2291 26.0298 32.141 25.9587 32.0412 25.9085C31.9413 25.8583 31.8318 25.8299 31.72 25.8254C31.6084 25.8209 31.4969 25.8401 31.3933 25.882C31.0541 25.9712 30.7274 26.103 30.4212 26.2741C28.6471 27.3129 27.7039 28.9111 27.6064 30.9234C27.4512 34.126 30.385 35.5104 32.7718 34.7345C34.3083 34.2351 34.8672 32.9401 34.2022 31.6176C34.1709 31.5466 34.1435 31.4739 34.1204 31.3999C34.1362 31.345 34.1595 31.2925 34.1899 31.2441C34.4856 30.9033 34.5942 30.5181 34.3274 30.1344C34.0731 29.7686 33.6682 29.6885 33.2399 29.7506L33.008 29.7841L33.008 29.7841C32.5503 29.8501 32.0926 29.9161 31.6376 29.9979C31.4479 30.0187 31.2703 30.1017 31.1327 30.234C30.9951 30.3664 30.9051 30.5405 30.877 30.7293C30.8598 30.9193 30.9051 31.1097 31.0059 31.2716C31.1066 31.4335 31.2575 31.5582 31.4355 31.6266C31.5311 31.6706 31.6334 31.7 31.7358 31.7293L31.7358 31.7293C31.8423 31.7599 31.9487 31.7904 32.0474 31.8374L32.0709 31.8486ZM24.0422 31.1776L23.7613 32.2549C23.6964 32.1398 23.6462 32.0525 23.6055 31.9819L23.6055 31.9819C23.5409 31.8698 23.5007 31.7998 23.4648 31.7278C22.7337 30.2502 22.0003 28.7736 21.2643 27.2985C21.1621 27.0777 21.0398 26.8669 20.8988 26.6686C20.6376 26.3245 20.2811 26.2108 19.9778 26.3531C19.6278 26.517 19.5393 26.8337 19.5992 27.1696C19.6561 27.5434 19.76 27.9086 19.9085 28.2563C20.7108 29.9993 21.5307 31.7337 22.3682 33.4591C22.5823 33.8969 22.8431 34.3101 23.146 34.6917C23.6666 35.3492 24.4623 35.2572 24.8577 34.5149C24.9854 34.2764 25.0857 34.0242 25.1567 33.7631C25.7105 31.7012 26.254 29.6372 26.7873 27.5708C26.8434 27.3059 26.8652 27.0349 26.852 26.7643C26.8486 26.3857 26.7191 26.0626 26.3048 25.9677C25.9052 25.8763 25.6136 26.0672 25.4319 26.4044C25.2922 26.6662 25.1784 26.9409 25.0922 27.2249C24.97 27.6215 24.8654 28.0235 24.7609 28.4255L24.7609 28.4256L24.7608 28.4257C24.7362 28.5206 24.7115 28.6155 24.6865 28.7103C24.4772 29.5089 24.2689 30.3079 24.0422 31.1776ZM16.9816 27.0485C15.6375 27.1533 15.0503 27.6537 14.8858 28.8751C14.9567 28.9093 15.0298 28.9451 15.1046 28.9817L15.1052 28.982C15.2751 29.0652 15.4538 29.1527 15.6348 29.2352C15.8067 29.3137 15.9803 29.3888 16.1539 29.464L16.1541 29.464C16.4764 29.6035 16.7987 29.743 17.1099 29.9038C17.6951 30.1959 18.1833 30.6512 18.5154 31.2147C19.4431 32.8071 18.4949 34.7024 16.6606 34.9086C15.6011 35.0277 14.698 34.6398 13.8799 34.0093C13.7656 33.9366 13.679 33.8276 13.6339 33.6998L13.6314 33.6846C13.5958 33.4635 13.5501 33.1805 13.6576 33.0299C13.7675 32.8759 14.0608 32.8217 14.2822 32.7953C14.3756 32.7841 14.4748 32.8294 14.5751 32.8753C14.6295 32.9002 14.6842 32.9253 14.7386 32.9415C15.0964 33.0627 15.4601 33.1658 15.8283 33.2504C16.5347 33.3861 17.1093 33.1672 17.3228 32.7217C17.5252 32.2987 17.266 31.7096 16.6568 31.301C16.3609 31.1133 16.0505 30.9495 15.7285 30.8108C15.5514 30.729 15.37 30.6559 15.1887 30.5828L15.1886 30.5828C14.9437 30.484 14.6989 30.3853 14.4647 30.2655C13.4882 29.7659 13.1732 28.8811 13.6138 27.8792C13.9617 27.0885 14.4849 26.4216 15.3049 26.1066C15.7296 25.9486 16.1862 25.8955 16.6358 25.9516C17.228 26.0305 17.3273 26.4195 16.9816 27.0485Z" fill="black"/>
</svg>
