<svg width="100" height="100" viewBox="0 0 100 100" fill="none" xmlns="http://www.w3.org/2000/svg">
<path d="M54.727 99.1136C59.4159 98.6447 65.5115 97.4725 66.9182 96.7691C68.0904 96.0658 68.3249 95.3625 68.3249 91.6113C68.3249 88.5635 68.3249 88.0946 67.856 87.6257C67.3871 87.3913 67.1527 87.1568 66.4493 87.1568H65.746L65.9804 86.4535C65.9804 85.9846 66.2149 84.8123 66.6838 83.8746C66.9182 82.7023 67.6216 79.889 68.3249 77.31C69.0282 74.9656 69.966 71.9177 70.4349 70.5111C71.6072 66.7599 72.0761 64.8843 72.3105 62.071C72.7794 58.5543 72.3105 56.9131 70.9038 53.8653C69.0282 50.5831 69.0282 50.1142 69.7316 47.7697C69.966 46.8319 70.4349 44.4874 70.9038 42.8463C71.8416 37.6885 73.2483 32.5306 74.8894 27.3728C76.765 22.215 78.1717 16.3538 78.875 12.6026C79.5784 9.32037 79.8128 5.33477 79.3439 3.69364C78.4061 0.645827 75.8272 -0.760856 73.2483 0.411379C70.6694 1.81806 68.7938 5.33477 67.1527 11.6648C66.9182 12.8371 66.2149 15.1815 65.746 16.5882C65.2771 17.9949 64.1049 21.2772 63.1671 23.6216C62.4637 25.9661 61.5259 28.7795 61.057 29.7173L60.3537 31.124H60.1192C60.1192 30.8895 59.8848 30.4206 59.4159 29.4828C58.4781 27.1384 57.0714 25.4972 54.9614 24.7939C53.7892 24.5594 51.2103 24.5594 49.8036 25.0283C48.3969 25.4972 46.7558 26.6695 46.0524 28.3106C45.818 29.0139 45.3491 29.4828 45.1146 29.4828C45.1146 29.7173 44.4113 29.7173 43.7079 29.4828C41.8324 29.0139 39.9568 29.7173 38.5501 31.124C37.8468 32.0617 36.6745 34.1718 36.6745 34.8751V35.1096H36.4401C35.7367 34.8751 33.8612 30.6551 32.9234 27.8417C31.0478 21.5116 29.8756 18.9327 27.7655 17.0571C24.9522 14.7127 21.201 15.6504 20.2632 18.9327C19.091 22.6839 21.9044 32.2962 27.2967 42.8463C28.9378 46.363 28.9378 46.363 28.9378 52.6931C28.9378 61.6021 29.4067 68.8699 30.5789 72.6211C30.5789 73.3244 31.2823 74.7311 31.5167 75.6689C32.22 77.31 32.4545 77.7789 32.6889 81.5301C32.9234 83.6401 33.1578 85.7501 33.1578 86.219V87.1568H32.4545C30.8134 87.1568 30.3445 88.0946 30.3445 91.6113C30.3445 95.8314 30.8134 96.7691 34.0956 97.4725C40.4257 99.1136 47.6936 99.5825 54.727 99.1136ZM40.8946 93.2524C37.8468 93.018 34.5645 92.5491 34.0956 92.3147C33.6267 92.0802 33.3923 91.3769 33.8612 90.908L34.0956 90.6735L35.5023 90.908C38.0812 91.6113 41.8324 92.0802 45.818 92.0802C49.8036 92.3147 50.2725 92.3147 50.2725 93.018V93.2524H49.3347C48.1624 93.4869 43.9424 93.4869 40.8946 93.2524ZM42.3013 89.0324C35.7367 88.0946 35.9712 88.0946 35.7367 84.8123C35.5023 83.6401 35.2679 80.8267 35.0334 78.9512C34.799 75.6689 34.5645 74.9656 34.0956 74.4967C32.4545 72.3866 31.2823 63.4777 31.5167 52.2242C31.7511 46.1286 31.7511 45.6597 30.11 42.6119C27.5311 37.9229 24.0144 29.2484 23.0766 25.2628C22.6077 22.6839 22.3733 20.1049 22.8422 19.1671C23.311 18.4638 24.4833 17.9949 25.4211 18.4638C27.0622 19.4016 28.4689 22.215 30.11 27.8417C31.2823 30.8895 32.6889 34.4062 35.9712 40.7363C36.2056 41.4396 36.909 42.8463 37.1434 43.7841C37.3779 44.4874 38.0812 46.1286 38.5501 47.0664C39.7223 49.8797 39.4879 50.5831 37.6123 51.052C37.1434 51.052 36.4401 51.2864 36.4401 51.5209V51.7553L36.909 51.9897C37.3779 52.2242 38.0812 52.2242 38.3157 52.2242C39.4879 52.2242 41.129 53.8653 42.3013 56.4442C42.7702 57.6165 43.7079 59.0232 43.9424 59.7265C44.6457 60.8987 44.8802 61.6021 45.1146 63.0088C45.1146 63.9465 45.3491 65.8221 45.5835 66.9944C45.5835 68.1666 45.818 70.0422 46.0524 71.2144C46.0524 73.3244 46.9902 77.5445 47.928 79.6545C48.6313 81.2956 49.3347 81.7645 50.2725 81.2956C50.9758 80.8267 50.9758 80.3578 50.038 78.0134C48.1624 72.3866 47.928 66.9944 49.5691 63.7121C50.038 62.5399 50.7414 62.071 52.8514 61.6021L54.0236 61.3676L54.727 62.071C56.6025 64.6499 60.3537 67.4633 61.7604 67.4633C62.6982 67.4633 63.1671 66.5255 63.1671 65.8221C62.9326 65.5877 62.2293 65.1188 61.5259 64.6499C58.947 63.2432 56.837 61.1332 56.1336 58.5543C54.9614 55.0376 53.7892 53.3964 50.2725 50.8175C47.4591 48.7075 44.4113 45.4252 43.4735 43.3152C41.3635 39.564 42.3013 36.0473 45.3491 36.0473C46.5213 36.0473 47.2247 36.2818 50.7414 38.3918C51.6792 39.0952 54.2581 40.5018 56.1336 41.2052C60.8226 43.3152 61.057 43.5496 62.6982 48.0041C64.8082 53.6309 65.2771 54.5687 67.3871 56.6787C69.2627 58.5543 69.2627 58.5543 69.0282 60.1954C69.0282 61.3676 69.0282 62.5399 68.5593 63.7121C67.856 66.291 65.9804 70.5111 64.5737 72.8555C62.6982 76.1378 62.2293 77.0756 60.8226 80.8267C58.947 86.219 57.7748 88.329 56.3681 88.7979C55.1959 89.2668 45.3491 89.2668 42.3013 89.0324ZM47.2247 59.0232C46.9902 59.0232 46.5213 58.5543 46.2869 58.3198C45.5835 57.382 44.4113 55.0376 43.2391 51.9897C42.5357 50.3486 41.3635 47.7697 40.6601 45.8941C39.019 41.9085 38.7846 40.2674 38.7846 37.6885C39.019 34.1718 40.4257 31.8273 42.5357 32.0617C43.7079 32.0617 45.5835 32.7651 45.5835 33.234V33.4684H44.6457C44.1768 33.4684 43.2391 33.7029 42.5357 34.1718C41.3635 34.6407 41.129 34.8751 40.4257 36.2818C39.7223 37.6885 39.7223 37.9229 39.7223 40.0329C39.9568 41.6741 39.9568 42.3774 40.6601 43.7841C42.0668 46.8319 45.3491 50.3486 49.3347 53.162C50.7414 54.3342 51.2103 55.272 50.7414 56.9131C50.5069 58.0854 49.8036 58.7887 48.8658 59.0232C48.1624 59.4921 47.928 59.4921 47.2247 59.0232ZM65.9804 49.6453C65.746 48.9419 65.0426 47.3008 64.5737 45.8941C63.8704 43.7841 63.6359 43.0808 63.6359 40.7363C63.4015 39.3296 63.1671 37.2196 62.9326 36.0473C62.6982 35.1096 62.4637 33.9373 62.4637 33.4684C62.4637 33.234 62.9326 31.5928 63.6359 29.7173C64.3393 28.0761 65.5115 25.0283 66.2149 23.3872C66.6838 21.7461 67.6216 18.9327 68.3249 17.526C68.7938 15.8849 69.4971 13.5404 69.7316 12.3682C70.9038 7.44479 72.5449 3.92809 74.1861 2.9903C75.3583 2.28696 75.8272 2.5214 76.5305 3.92809C76.9994 4.86587 76.9994 5.10032 76.9994 7.67924C76.765 12.1337 75.1239 19.4016 72.3105 27.1383C70.9038 31.3584 69.2627 37.454 68.3249 42.6119C67.856 44.253 67.3871 46.363 67.1527 47.3008C66.9182 48.2386 66.6838 49.4108 66.6838 50.1142V51.052L65.9804 49.6453ZM55.6648 38.1574C54.4925 37.6885 52.6169 36.5162 51.2103 35.8129C48.8658 34.1718 48.6313 34.1718 48.3969 33.234C47.4591 29.9517 48.6313 27.6072 51.6791 27.1383C54.0236 26.9039 55.8992 27.8417 56.837 29.9517C57.7748 31.8273 58.7126 37.454 58.0092 38.6263V39.0952H57.7748C57.7748 39.0952 56.837 38.6263 55.6648 38.1574Z" fill="#262626"/>
</svg>
